<?xml version="1.0" encoding="UTF-8"?>
<svg version="1.1" xmlns="http://www.w3.org/2000/svg" width="463" height="165">
<path d="M0 0 C0.99 0.33 1.98 0.66 3 1 C3.61810307 10.59995668 4.23551367 20.19995761 4.8521328 29.80000973 C5.13873671 34.26179442 5.42554503 38.72356574 5.71289062 43.18530273 C5.99088021 47.50207046 6.26835776 51.81887078 6.54538727 56.13570023 C6.65582312 57.85620468 6.76637319 59.57670181 6.87703705 61.29719162 C7.46370753 70.42498594 8.03870425 79.55318859 8.57519531 88.68408203 C8.64297023 89.83121532 8.64297023 89.83121532 8.71211433 91.00152302 C8.92340388 94.58096573 9.13183956 98.1605252 9.33456421 101.74046326 C9.44473373 103.62185753 9.44473373 103.62185753 9.55712891 105.54125977 C9.61897369 106.6257692 9.68081848 107.71027863 9.74453735 108.82765198 C10.01983219 112.24627708 10.48291701 115.61022819 11 119 C11.17095184 118.36772995 11.34190369 117.7354599 11.51803589 117.08403015 C13.29595228 110.51263072 15.08152227 103.94334585 16.87158203 97.37524414 C17.53892002 94.92265524 18.20429457 92.46953123 18.86767578 90.01586914 C19.82070348 86.49223086 20.78074045 82.97056772 21.7421875 79.44921875 C22.03809784 78.34913986 22.33400818 77.24906097 22.6388855 76.11564636 C22.91902496 75.09481461 23.19916443 74.07398285 23.48779297 73.0222168 C23.73206024 72.12286911 23.97632751 71.22352142 24.22799683 70.29692078 C25 68 25 68 27 65 C28.485 65.495 28.485 65.495 30 66 C30.94921875 68.06640625 30.94921875 68.06640625 31.6875 70.5625 C31.93886719 71.38878906 32.19023438 72.21507813 32.44921875 73.06640625 C32.63097656 73.70449219 32.81273438 74.34257813 33 75 C36.33402609 67.79179833 39.19827683 60.4291594 42 53 C43.32 53 44.64 53 46 53 C46.93873691 55.02025905 47.87592803 57.0412364 48.8125 59.0625 C49.33457031 60.18785156 49.85664062 61.31320313 50.39453125 62.47265625 C51.98280204 65.96221469 53.49512792 69.47393221 55 73 C56.01101178 73.00423194 57.02202356 73.00846388 58.06367207 73.01282406 C82.78330821 73.11649998 107.50291785 73.22530513 132.22250843 73.33933926 C144.17721986 73.39437162 156.13193426 73.4478006 168.08666992 73.49731445 C178.51912533 73.54052758 188.95156142 73.58689219 199.38398665 73.63687855 C204.89628719 73.66318467 210.40858465 73.68802337 215.92090797 73.70907402 C238.29756509 73.79549086 260.64586193 73.88448573 283 75 C283 75.99 283 76.98 283 78 C253.75045893 78.09119628 224.50092792 78.16201069 195.25127382 78.20426132 C191.80024677 78.20926431 188.34921999 78.21444158 184.89819336 78.21972656 C184.21113889 78.2207758 183.52408443 78.22182505 182.81621013 78.22290608 C171.6828345 78.24032441 160.54954126 78.2718699 149.41621455 78.30861118 C137.9974234 78.34598102 126.5786992 78.36792791 115.15984517 78.37635398 C108.74389865 78.38158001 102.32813915 78.39390792 95.91225243 78.42292023 C89.87865 78.44998391 83.8453124 78.4584633 77.81165504 78.45243073 C75.59240914 78.45353502 73.37315476 78.46154238 71.15396118 78.4768219 C68.13312857 78.496608 65.11330708 78.49198068 62.092453 78.48101807 C61.20627342 78.49266943 60.32009384 78.5043208 59.40706033 78.51632524 C53.49274791 78.45796869 53.49274791 78.45796869 51.01619434 76.15621567 C49.71731332 73.40018024 48.49978201 70.64515653 47.375 67.8125 C46.12578012 64.13817167 46.12578012 64.13817167 44 61 C41.03 68.59 38.06 76.18 35 84 C33.68 84 32.36 84 31 84 C30.01 81.36 29.02 78.72 28 76 C22.39 96.13 16.78 116.26 11 137 C9.68 137 8.36 137 7 137 C5.33191196 114.36906919 3.80348216 91.73134417 2.51309204 69.07550049 C2.38104911 66.76301159 2.24712673 64.45062912 2.11117554 62.1383667 C1.28813295 48.07463452 0.81300124 34.08822924 1 20 C0.34 20 -0.32 20 -1 20 C-1.04862183 20.72150238 -1.09724365 21.44300476 -1.14733887 22.18637085 C-1.70693152 29.70811028 -2.72183691 37.05177628 -4.03125 44.4765625 C-4.32521667 46.17526993 -4.32521667 46.17526993 -4.62512207 47.90829468 C-5.03615081 50.27670152 -5.44971214 52.64467015 -5.86572266 55.01220703 C-6.50420778 58.64896716 -7.13353919 62.28722834 -7.76171875 65.92578125 C-8.16352859 68.23446799 -8.56585354 70.54306515 -8.96875 72.8515625 C-9.15731567 73.9410318 -9.34588135 75.0305011 -9.54016113 76.15298462 C-9.71704468 77.15518036 -9.89392822 78.1573761 -10.07617188 79.18994141 C-10.23081909 80.07308014 -10.38546631 80.95621887 -10.5447998 81.86611938 C-11 84 -11 84 -12 86 C-13.85253906 85.36767578 -13.85253906 85.36767578 -16 84 C-17.28027344 81.38623047 -17.28027344 81.38623047 -18.359375 78.1171875 C-18.75253906 76.95058594 -19.14570312 75.78398438 -19.55078125 74.58203125 C-19.94652344 73.35871094 -20.34226562 72.13539062 -20.75 70.875 C-21.36681641 69.02841797 -21.36681641 69.02841797 -21.99609375 67.14453125 C-23.01068674 64.10075227 -24.00707336 61.05091561 -25 58 C-27.64 62.95 -30.28 67.9 -33 73 C-38.28 73 -43.56 73 -49 73 C-48.67 71.68 -48.34 70.36 -48 69 C-43.71 69 -39.42 69 -35 69 C-34.34 67.02 -33.68 65.04 -33 63 C-31.83507585 60.68596515 -30.6252915 58.39404754 -29.375 56.125 C-28.74335937 54.97257812 -28.11171875 53.82015625 -27.4609375 52.6328125 C-26.97882812 51.76398437 -26.49671875 50.89515625 -26 50 C-24.13378906 50.17944336 -24.13378906 50.17944336 -22 51 C-20.81152344 53.22485352 -20.81152344 53.22485352 -19.859375 56.12890625 C-19.51132812 57.16337891 -19.16328125 58.19785156 -18.8046875 59.26367188 C-18.45664062 60.35228516 -18.10859375 61.44089844 -17.75 62.5625 C-17.38648437 63.65498047 -17.02296875 64.74746094 -16.6484375 65.87304688 C-15.75087306 68.57755026 -14.86888022 71.28617215 -14 74 C-13.89612976 73.39517288 -13.79225952 72.79034576 -13.6852417 72.16719055 C-12.58393714 65.75665711 -11.47993824 59.34659149 -10.37451172 52.93676758 C-9.96466885 50.55830103 -9.55546776 48.17972379 -9.14697266 45.80102539 C-7.08679725 33.8069575 -5.00780423 21.8170633 -2.765625 9.85546875 C-2.60157166 8.96757156 -2.43751831 8.07967438 -2.26849365 7.16487122 C-1.11863476 1.11863476 -1.11863476 1.11863476 0 0 Z " fill="#484848" transform="translate(63,12)"/>
<path d="M0 0 C0.99 0.33 1.98 0.66 3 1 C3 13.21 3 25.42 3 38 C2.67 38 2.34 38 2 38 C1.10395632 31.95170514 0.88730557 26.1105424 1 20 C0.34 20 -0.32 20 -1 20 C-1.04862183 20.72150238 -1.09724365 21.44300476 -1.14733887 22.18637085 C-1.70693152 29.70811028 -2.72183691 37.05177628 -4.03125 44.4765625 C-4.32521667 46.17526993 -4.32521667 46.17526993 -4.62512207 47.90829468 C-5.03615081 50.27670152 -5.44971214 52.64467015 -5.86572266 55.01220703 C-6.50420778 58.64896716 -7.13353919 62.28722834 -7.76171875 65.92578125 C-8.16352859 68.23446799 -8.56585354 70.54306515 -8.96875 72.8515625 C-9.15731567 73.9410318 -9.34588135 75.0305011 -9.54016113 76.15298462 C-9.71704468 77.15518036 -9.89392822 78.1573761 -10.07617188 79.18994141 C-10.23081909 80.07308014 -10.38546631 80.95621887 -10.5447998 81.86611938 C-11 84 -11 84 -12 86 C-13.85253906 85.36767578 -13.85253906 85.36767578 -16 84 C-17.28027344 81.38623047 -17.28027344 81.38623047 -18.359375 78.1171875 C-18.75253906 76.95058594 -19.14570312 75.78398438 -19.55078125 74.58203125 C-19.94652344 73.35871094 -20.34226562 72.13539062 -20.75 70.875 C-21.36681641 69.02841797 -21.36681641 69.02841797 -21.99609375 67.14453125 C-23.01068674 64.10075227 -24.00707336 61.05091561 -25 58 C-27.64 62.95 -30.28 67.9 -33 73 C-38.28 73 -43.56 73 -49 73 C-48.67 71.68 -48.34 70.36 -48 69 C-43.71 69 -39.42 69 -35 69 C-34.34 67.02 -33.68 65.04 -33 63 C-31.83507585 60.68596515 -30.6252915 58.39404754 -29.375 56.125 C-28.74335937 54.97257812 -28.11171875 53.82015625 -27.4609375 52.6328125 C-26.97882812 51.76398437 -26.49671875 50.89515625 -26 50 C-24.13378906 50.17944336 -24.13378906 50.17944336 -22 51 C-20.81152344 53.22485352 -20.81152344 53.22485352 -19.859375 56.12890625 C-19.51132812 57.16337891 -19.16328125 58.19785156 -18.8046875 59.26367188 C-18.45664062 60.35228516 -18.10859375 61.44089844 -17.75 62.5625 C-17.38648437 63.65498047 -17.02296875 64.74746094 -16.6484375 65.87304688 C-15.75087306 68.57755026 -14.86888022 71.28617215 -14 74 C-13.89612976 73.39517288 -13.79225952 72.79034576 -13.6852417 72.16719055 C-12.58393714 65.75665711 -11.47993824 59.34659149 -10.37451172 52.93676758 C-9.96466885 50.55830103 -9.55546776 48.17972379 -9.14697266 45.80102539 C-7.08679725 33.8069575 -5.00780423 21.8170633 -2.765625 9.85546875 C-2.60157166 8.96757156 -2.43751831 8.07967438 -2.26849365 7.16487122 C-1.11863476 1.11863476 -1.11863476 1.11863476 0 0 Z " fill="#474747" transform="translate(63,12)"/>
<path d="M0 0 C3.7187862 0.41144018 5.24351541 1.97329031 7.625 4.75 C8.30949219 5.54792969 8.99398437 6.34585938 9.69921875 7.16796875 C12.80558921 10.99159962 15.81091721 14.88852684 18.76220703 18.83300781 C19.81989012 20.23850834 20.90713928 21.62167468 22 23 C22.33 23 22.66 23 23 23 C23 15.74 23 8.48 23 1 C24.32 0.67 25.64 0.34 27 0 C27.9767249 10.02887177 28.10849626 19.93395765 28 30 C26.35 30.33 24.7 30.66 23 31 C16.54260896 23.42680977 10.17557057 15.80685337 4 8 C3.67 15.59 3.34 23.18 3 31 C1.68 30.67 0.36 30.34 -1 30 C-1.02465746 25.8882744 -1.04283959 21.77657722 -1.05493164 17.66479492 C-1.0599708 16.26504772 -1.06680216 14.8653058 -1.07543945 13.46557617 C-1.0875232 11.45754223 -1.09269807 9.44947043 -1.09765625 7.44140625 C-1.10289307 6.23170166 -1.10812988 5.02199707 -1.11352539 3.77563477 C-1 1 -1 1 0 0 Z " fill="#464646" transform="translate(145,43)"/>
<path d="M0 0 C1.12148438 -0.01675781 2.24296875 -0.03351562 3.3984375 -0.05078125 C7.95777546 0.46255825 10.57692755 2.01144455 13.4375 5.5625 C15.45704845 10.23934905 15.18698214 13.85134644 13.375 18.5625 C10.75055843 22.68662246 9.02340958 23.97584584 4.25 25.125 C0.47360649 25.3203307 -1.91002954 24.74919507 -5.375 23.3125 C-5.375 26.9425 -5.375 30.5725 -5.375 34.3125 C-6.695 34.3125 -8.015 34.3125 -9.375 34.3125 C-9.44906517 29.7918661 -9.50356045 25.271584 -9.53979492 20.75048828 C-9.55489711 19.21201426 -9.57538046 17.67358339 -9.60131836 16.13525391 C-9.63764074 13.92599859 -9.65471119 11.71731152 -9.66796875 9.5078125 C-9.68345261 8.81817413 -9.69893646 8.12853577 -9.71488953 7.41799927 C-9.71557617 5.47705078 -9.71557617 5.47705078 -9.375 2.3125 C-5.84075288 -0.04366475 -4.18855898 0.0143772 0 0 Z M-5.375 4.3125 C-5.375 8.9325 -5.375 13.5525 -5.375 18.3125 C0.69160604 21.58301551 0.69160604 21.58301551 6.625 20.3125 C9.47045762 18.54635389 9.64455037 17.23709142 10.5 13.9375 C10.64228325 9.81128574 10.40012209 8.34778978 7.625 5.3125 C2.48077234 3.17716021 0.32359413 3.36273431 -5.375 4.3125 Z " fill="#424242" transform="translate(305.375,49.6875)"/>
<path d="M0 0 C1.83498047 -0.03867187 1.83498047 -0.03867187 3.70703125 -0.078125 C7.4596747 0.27565957 9.25948197 0.9159964 12.1875 3.25 C15.1118546 7.49959082 14.67798025 12.29695355 14.1875 17.25 C13.13542622 20.34046673 12.2638465 21.59676902 9.48828125 23.28125 C4.12635037 25.72519492 0.67647896 25.11233215 -4.8125 23.25 C-4.8125 26.88 -4.8125 30.51 -4.8125 34.25 C-6.1325 34.25 -7.4525 34.25 -8.8125 34.25 C-8.8125 23.36 -8.8125 12.47 -8.8125 1.25 C-5.88789571 -0.21230215 -3.25597176 0.04091273 0 0 Z M-4.8125 4.25 C-4.94739391 6.51921536 -5.04443995 8.7907067 -5.125 11.0625 C-5.18300781 12.32707031 -5.24101562 13.59164062 -5.30078125 14.89453125 C-5.17252134 18.3879855 -5.17252134 18.3879855 -2.484375 20.203125 C0.94021923 21.54492508 2.69717823 21.36393248 6.1875 20.25 C8.70756844 18.81338689 8.70756844 18.81338689 10.1875 16.25 C10.7471966 13.46865055 10.7471966 11.03134945 10.1875 8.25 C8.13322096 5.16858144 6.80985052 4.42213951 3.25 3.4375 C0.29646377 3.25667125 -1.94680656 3.61479553 -4.8125 4.25 Z " fill="#383838" transform="translate(335.8125,49.75)"/>
<path d="M0 0 C1.86621094 0.17944336 1.86621094 0.17944336 4 1 C5.18847656 3.22485352 5.18847656 3.22485352 6.140625 6.12890625 C6.48867188 7.16337891 6.83671875 8.19785156 7.1953125 9.26367188 C7.54335938 10.35228516 7.89140625 11.44089844 8.25 12.5625 C8.61351563 13.65498047 8.97703125 14.74746094 9.3515625 15.87304688 C10.24912694 18.57755026 11.13111978 21.28617215 12 24 C12.33 22.02 12.66 20.04 13 18 C13.99 18 14.98 18 16 18 C16.2361959 24.40353322 15.823321 29.84629161 14 36 C12.14746094 35.36767578 12.14746094 35.36767578 10 34 C8.71972656 31.38623047 8.71972656 31.38623047 7.640625 28.1171875 C7.24746094 26.95058594 6.85429688 25.78398438 6.44921875 24.58203125 C6.05347656 23.35871094 5.65773438 22.13539062 5.25 20.875 C4.83878906 19.64394531 4.42757812 18.41289063 4.00390625 17.14453125 C2.98931326 14.10075227 1.99292664 11.05091561 1 8 C-1.64 12.95 -4.28 17.9 -7 23 C-12.28 23 -17.56 23 -23 23 C-22.67 21.68 -22.34 20.36 -22 19 C-17.71 19 -13.42 19 -9 19 C-8.34 17.02 -7.68 15.04 -7 13 C-5.83507585 10.68596515 -4.6252915 8.39404754 -3.375 6.125 C-2.74335937 4.97257812 -2.11171875 3.82015625 -1.4609375 2.6328125 C-0.97882812 1.76398437 -0.49671875 0.89515625 0 0 Z " fill="#414141" transform="translate(37,62)"/>
<path d="M0 0 C74.745 0.495 74.745 0.495 151 1 C150.67 1.66 150.34 2.32 150 3 C100.5 3 51 3 0 3 C0 2.01 0 1.02 0 0 Z " fill="#060606" transform="translate(115,86)"/>
<path d="M0 0 C4.83300781 0.7890625 4.83300781 0.7890625 6.3359375 2.6875 C6.67882812 3.450625 7.02171875 4.21375 7.375 5 C7.77847656 5.88816406 8.18195313 6.77632812 8.59765625 7.69140625 C9.06042969 8.78324219 9.52320313 9.87507813 10 11 C10.2976123 11.6894873 10.59522461 12.37897461 10.90185547 13.08935547 C11.88304331 15.3675896 12.85101572 17.65088383 13.8125 19.9375 C14.12687012 20.68322266 14.44124023 21.42894531 14.76513672 22.19726562 C16.02664321 25.27083059 17 27.64469851 17 31 C15.0859375 30.75 15.0859375 30.75 13 30 C12.2265625 28.1875 12.2265625 28.1875 11.625 26 C10.78627495 23.72574687 10.78627495 23.72574687 9 22 C4.3268849 20.95912054 -0.22612332 20.89788499 -5 21 C-5.17015625 21.63808594 -5.3403125 22.27617188 -5.515625 22.93359375 C-5.75796875 23.75988281 -6.0003125 24.58617188 -6.25 25.4375 C-6.59804688 26.67306641 -6.59804688 26.67306641 -6.953125 27.93359375 C-8 30 -8 30 -10.109375 30.78515625 C-10.73328125 30.85605469 -11.3571875 30.92695312 -12 31 C-11.42298049 26.59627898 -10.31103044 22.99241271 -8.49609375 18.9453125 C-8.00302734 17.83671875 -7.50996094 16.728125 -7.00195312 15.5859375 C-6.48568359 14.44382812 -5.96941406 13.30171875 -5.4375 12.125 C-4.91736328 10.9596875 -4.39722656 9.794375 -3.86132812 8.59375 C-2.58039143 5.72633208 -1.29311475 2.86194152 0 0 Z M2 5 C-0.475 10.94 -0.475 10.94 -3 17 C0.3 17 3.6 17 7 17 C6.54965877 15.37276701 6.08944646 13.74826336 5.625 12.125 C5.36976563 11.22007813 5.11453125 10.31515625 4.8515625 9.3828125 C4.1395685 6.85430274 4.1395685 6.85430274 2 5 Z " fill="#565656" transform="translate(272,43)"/>
<path d="M0 0 C0.76183594 -0.01417969 1.52367187 -0.02835938 2.30859375 -0.04296875 C4.865332 0.21846549 6.40136845 0.8063947 8.5625 2.1875 C10.5625 5.1875 10.5625 5.1875 10.5625 13.1875 C4.2925 13.1875 -1.9775 13.1875 -8.4375 13.1875 C-7.01363701 17.96729216 -7.01363701 17.96729216 -4.75 19.5 C-0.32751991 20.81479138 4.18276192 20.58901619 8.5625 19.1875 C8.8925 20.5075 9.2225 21.8275 9.5625 23.1875 C3.34327643 25.22288226 -1.26027085 25.60671902 -7.4375 23.1875 C-10.5 21.25 -10.5 21.25 -12.4375 18.1875 C-13.26402925 13.7064819 -13.52569469 9.31837553 -11.41015625 5.17578125 C-8.10715624 1.02946209 -5.10268857 0.04302436 0 0 Z M-7.2578125 5.515625 C-8.72576664 7.25500781 -8.72576664 7.25500781 -8.4375 10.1875 C-3.4875 10.1875 1.4625 10.1875 6.5625 10.1875 C6.1172002 5.55730013 6.1172002 5.55730013 4.5625 4.1875 C2.3002642 3.94903097 2.3002642 3.94903097 -0.3125 3.9375 C-1.19679687 3.91171875 -2.08109375 3.8859375 -2.9921875 3.859375 C-5.47753147 3.99507871 -5.47753147 3.99507871 -7.2578125 5.515625 Z " fill="#1E1E1E" transform="translate(192.4375,49.8125)"/>
<path d="M0 0 C3.85544798 1.99657127 5.59805092 3.39707638 8 7 C8.77243075 11.72402387 8.93696403 16.48566231 6.0625 20.5 C2.1616247 23.684388 -0.97162214 24.87429055 -6 25 C-10.6302689 24.27448251 -13.3095662 22.74221634 -16.5 19.3125 C-18.45279948 15.00006782 -18.52345463 12.71109167 -18 8 C-16.70727212 4.93827606 -15.41968278 3.36881214 -12.9375 1.1875 C-8.59887729 -0.56641131 -4.6143278 -0.67922905 0 0 Z M-11 5 C-13.39442371 7.31185738 -13.94472919 8.628896 -14.4375 11.9375 C-13.89919863 15.70560958 -12.62436976 17.29844289 -10 20 C-7.17998673 21.41000664 -5.12992745 21.24548451 -2 21 C1.71156874 19.23526445 1.71156874 19.23526445 4 16 C4.56909142 10.43708776 4.56909142 10.43708776 2.375 5.5625 C-2.20940053 2.54644702 -6.22097432 2.28758002 -11 5 Z " fill="#535353" transform="translate(374,50)"/>
<path d="M0 0 C4.21637021 4.21637021 5.65111912 10.51927795 8 16 C104.03 16.495 104.03 16.495 202 17 C202 17.33 202 17.66 202 18 C176.60970093 18.02333147 151.21940346 18.0409804 125.82909584 18.05181217 C114.04068265 18.0569746 102.25227611 18.06401629 90.46386719 18.07543945 C80.19244583 18.08538791 69.92102929 18.09185382 59.64960325 18.09408849 C54.20795113 18.09539532 48.76631279 18.09847945 43.32466507 18.10573006 C38.20793717 18.11249281 33.09122879 18.11461643 27.97449684 18.11310768 C26.09186891 18.11338389 24.20924036 18.11538751 22.32661629 18.11920547 C19.76554087 18.12414669 17.20454011 18.12299668 14.64346313 18.12025452 C13.51409928 18.12462378 13.51409928 18.12462378 12.36192 18.12908131 C7.22824242 18.11412121 7.22824242 18.11412121 5 17 C4.67 17.66 4.34 18.32 4 19 C1.69 13.39 -0.62 7.78 -3 2 C-2.34 2 -1.68 2 -1 2 C-0.67 1.34 -0.34 0.68 0 0 Z " fill="#A5A5A5" transform="translate(110,69)"/>
<path d="M0 0 C0.99 0 1.98 0 3 0 C3.66 0.66 4.32 1.32 5 2 C5.99 1.34 6.98 0.68 8 0 C11.06630655 -0.54550398 13.93176819 -0.53290342 17 0 C20.55786761 2.66840071 22.27933786 4.66116814 23 9 C23.06831987 11.4157906 23.08487642 13.83334713 23.0625 16.25 C23.05347656 17.51328125 23.04445313 18.7765625 23.03515625 20.078125 C23.02355469 21.04234375 23.01195312 22.0065625 23 23 C21.0625 23.5625 21.0625 23.5625 19 24 C16.68917152 21.68917152 17.53803191 15.37191671 17.39453125 12.08203125 C17.57300905 8.22526907 17.57300905 8.22526907 16 5 C10.12353969 4.53668563 10.12353969 4.53668563 5 7 C4.61605333 9.77262255 4.39657752 12.34323528 4.3125 15.125 C4.27833984 15.87910156 4.24417969 16.63320312 4.20898438 17.41015625 C4.12645722 19.27291201 4.06155289 21.13643326 4 23 C2.68 23.33 1.36 23.66 0 24 C0 16.08 0 8.16 0 0 Z " fill="#575757" transform="translate(402,50)"/>
<path d="M0 0 C2.54518023 0.2932718 3.69494332 0.65617921 5.4140625 2.59375 C5.81367188 3.2228125 6.21328125 3.851875 6.625 4.5 C8.33468108 7.26274124 8.33468108 7.26274124 11 9 C11.2475 8.443125 11.495 7.88625 11.75 7.3125 C13.21606015 4.60028873 15.02989471 2.36412635 17 0 C18.32 0.33 19.64 0.66 21 1 C20.55527344 1.59167969 20.11054688 2.18335938 19.65234375 2.79296875 C19.08644531 3.58316406 18.52054688 4.37335937 17.9375 5.1875 C17.36902344 5.96480469 16.80054688 6.74210937 16.21484375 7.54296875 C14.78206163 9.92873487 14.78206163 9.92873487 15.15625 12.5703125 C16.00940484 15.02708246 16.95935203 16.65501896 18.5625 18.6875 C21 21.80169972 21 21.80169972 21 24 C18.8125 23.9375 18.8125 23.9375 16 23 C13.61372642 20.43314355 11 17.61081552 11 14 C8.52458081 16.29860354 6.78454948 18.35010709 5 21.25 C4.34 22.1575 3.68 23.065 3 24 C1.68 24 0.36 24 -1 24 C-0.25413152 20.04516248 1.52879929 17.83239866 4.0390625 14.78125 C5.18819426 13.04784878 5.18819426 13.04784878 4.80859375 11.046875 C3.90223775 8.75252455 2.78162485 6.81788438 1.4375 4.75 C0.98246094 4.04359375 0.52742187 3.3371875 0.05859375 2.609375 C-0.29074219 2.07828125 -0.64007813 1.5471875 -1 1 C-0.67 0.67 -0.34 0.34 0 0 Z " fill="#4A4A4A" transform="translate(210,50)"/>
<path d="M0 0 C0.99 0 1.98 0 3 0 C3 1.65 3 3.3 3 5 C5.97 5 8.94 5 12 5 C12 6.32 12 7.64 12 9 C9.03 9 6.06 9 3 9 C3.33 13.95 3.66 18.9 4 24 C8.80388386 25.13074409 8.80388386 25.13074409 13 25 C12.67 26.32 12.34 27.64 12 29 C7.60241521 30.02269414 5.02870334 30.1262601 1 28 C-2.23150962 24.76849038 -1.39806416 20.1483146 -1.47851562 15.765625 C-1.5506536 13.83725371 -1.7667462 11.91557104 -2 10 C-2.99 9.34 -3.98 8.68 -5 8 C-4.67 7.01 -4.34 6.02 -4 5 C-3.34 5 -2.68 5 -2 5 C-1.34 3.35 -0.68 1.7 0 0 Z " fill="#363636" transform="translate(241,45)"/>
<path d="M0 0 C0.99 0 1.98 0 3 0 C3 1.65 3 3.3 3 5 C5.97 5 8.94 5 12 5 C12 6.32 12 7.64 12 9 C9.03 9 6.06 9 3 9 C3.33 13.95 3.66 18.9 4 24 C8.80388386 25.13074409 8.80388386 25.13074409 13 25 C12.67 26.32 12.34 27.64 12 29 C7.60241521 30.02269414 5.02870334 30.1262601 1 28 C-1 26 -1 26 -1.1953125 22.0859375 C-1.18200376 20.51550649 -1.15813602 18.94513779 -1.125 17.375 C-1.11597656 16.57320312 -1.10695313 15.77140625 -1.09765625 14.9453125 C-1.07406223 12.96341477 -1.03819065 10.98167019 -1 9 C-2.32 8.67 -3.64 8.34 -5 8 C-3.98379995 4.95139986 -3.22608429 4.13333078 -1 2 C-0.67 1.34 -0.34 0.68 0 0 Z " fill="#2E2E2E" transform="translate(435,45)"/>
<path d="M0 0 C0.33 0 0.66 0 1 0 C1.43301321 6.7399574 1.85952065 13.48030506 2.28173828 20.22094727 C2.42578648 22.50880005 2.57126447 24.79656332 2.71826172 27.08422852 C4.28393445 51.47996583 4.28393445 51.47996583 4 62 C3.67 62 3.34 62 3 62 C2.67 67.94 2.34 73.88 2 80 C1.67 80 1.34 80 1 80 C0.5687845 72.49289859 0.14201943 64.98555339 -0.28173828 57.47802734 C-0.42623516 54.92718863 -0.57172876 52.37640616 -0.71826172 49.82568359 C-0.9294187 46.14695552 -1.13692093 42.46803614 -1.34375 38.7890625 C-1.44218201 37.09470566 -1.44218201 37.09470566 -1.54260254 35.36611938 C-1.90195916 28.90221934 -2.08594266 22.47377899 -2 16 C-1.67 16 -1.34 16 -1 16 C-0.67 10.72 -0.34 5.44 0 0 Z " fill="#5D5D5D" transform="translate(66,26)"/>
<path d="M0 0 C0.99 0.33 1.98 0.66 3 1 C3 13.21 3 25.42 3 38 C2.67 38 2.34 38 2 38 C1.10395632 31.95170514 0.88730557 26.1105424 1 20 C0.34 20 -0.32 20 -1 20 C-1 21.98 -1 23.96 -1 26 C-1.66 26 -2.32 26 -3 26 C-3.33 26.66 -3.66 27.32 -4 28 C-4.38491906 21.27104457 -3.81456451 14.97181949 -2.5625 8.375 C-2.360802 7.30862305 -2.360802 7.30862305 -2.1550293 6.22070312 C-1.14123326 1.14123326 -1.14123326 1.14123326 0 0 Z " fill="#2D2D2D" transform="translate(63,12)"/>
<path d="M0 0 C0.33 0 0.66 0 1 0 C1.33 8.58 1.66 17.16 2 26 C2.66 22.7 3.32 19.4 4 16 C5.299375 16.5259375 5.299375 16.5259375 6.625 17.0625 C10.37537126 18.10426979 12.31056021 18.20307819 16 17 C18.38388916 14.56391207 18.38388916 14.56391207 20 12 C20 12.99 20 13.98 20 15 C20.66 15 21.32 15 22 15 C22.33 12.03 22.66 9.06 23 6 C23.33 6 23.66 6 24 6 C24.31464883 11.24414718 23.83856733 14.53939419 21 19 C17.77769515 22.33738717 14.55182982 22.76456053 10 23 C6.5625 22.0625 6.5625 22.0625 4 21 C4 24.63 4 28.26 4 32 C2.68 32 1.36 32 0 32 C0 21.44 0 10.88 0 0 Z " fill="#5E5E5E" transform="translate(296,52)"/>
<path d="M0 0 C0.99 0 1.98 0 3 0 C3.9767249 10.02887177 4.10849626 19.93395765 4 30 C2.35 30.33 0.7 30.66 -1 31 C-1.33 29.35 -1.66 27.7 -2 26 C-1.34 25.67 -0.68 25.34 0 25 C-0.33 24.34 -0.66 23.68 -1 23 C-1.0960207 21.34463936 -1.13074554 19.68548564 -1.1328125 18.02734375 C-1.13410156 17.04572266 -1.13539063 16.06410156 -1.13671875 15.05273438 C-1.13285156 14.02470703 -1.12898437 12.99667969 -1.125 11.9375 C-1.12886719 10.90560547 -1.13273438 9.87371094 -1.13671875 8.81054688 C-1.13542969 7.83021484 -1.13414062 6.84988281 -1.1328125 5.83984375 C-1.13112061 4.48427368 -1.13112061 4.48427368 -1.12939453 3.10131836 C-1 1 -1 1 0 0 Z " fill="#5D5D5D" transform="translate(169,43)"/>
<path d="M0 0 C1.8871875 -0.02126953 1.8871875 -0.02126953 3.8125 -0.04296875 C7 0.1875 7 0.1875 9 2.1875 C8.34 2.1875 7.68 2.1875 7 2.1875 C7.33 3.1775 7.66 4.1675 8 5.1875 C3.71 4.8575 -0.58 4.5275 -5 4.1875 C-4.98839844 5.28707031 -4.97679687 6.38664062 -4.96484375 7.51953125 C-4.90482638 15.80286634 -5.00352494 23.94878653 -6 32.1875 C-8.79177569 29.39572431 -8.31213484 27.55566428 -8.4140625 23.6484375 C-8.45273437 22.34648438 -8.49140625 21.04453125 -8.53125 19.703125 C-8.56270763 18.32292138 -8.59395491 16.94271296 -8.625 15.5625 C-8.66317934 14.17445459 -8.70223105 12.78643289 -8.7421875 11.3984375 C-8.83672943 7.99492815 -8.92227897 4.59142835 -9 1.1875 C-6.02958551 -0.29770725 -3.30235553 0.0169178 0 0 Z " fill="#4A4A4A" transform="translate(336,49.8125)"/>
<path d="M0 0 C3.00239102 4.50358652 3.27705519 8.43168156 3.5625 13.6875 C3.62618774 14.80306274 3.62618774 14.80306274 3.69116211 15.94116211 C4.09380948 23.62872925 4.0932146 31.30461731 4 39 C3.67 39 3.34 39 3 39 C2.67 43.95 2.34 48.9 2 54 C1.67 54 1.34 54 1 54 C-0.47059383 36.03774673 -0.09464603 18.00604252 0 0 Z " fill="#454545" transform="translate(68,85)"/>
<path d="M0 0 C0.66 0 1.32 0 2 0 C3.17314026 2.76825188 4.33870215 5.53928486 5.5 8.3125 C5.83386719 9.09818359 6.16773438 9.88386719 6.51171875 10.69335938 C6.82753906 11.45068359 7.14335937 12.20800781 7.46875 12.98828125 C7.90864258 14.03302612 7.90864258 14.03302612 8.35742188 15.09887695 C9 17 9 17 9 20 C7.140625 19.74609375 7.140625 19.74609375 5 19 C3.734375 17.22265625 3.734375 17.22265625 2.75 15.0625 C2.41484375 14.35222656 2.0796875 13.64195313 1.734375 12.91015625 C1 11 1 11 1 9 C-2.63 9 -6.26 9 -10 9 C-10.33 8.34 -10.66 7.68 -11 7 C-7.37 7 -3.74 7 0 7 C-0.185625 6.030625 -0.37125 5.06125 -0.5625 4.0625 C-0.706875 3.051875 -0.85125 2.04125 -1 1 C-0.67 0.67 -0.34 0.34 0 0 Z " fill="#434343" transform="translate(280,54)"/>
<path d="M0 0 C0.33 0.66 0.66 1.32 1 2 C1.66 2 2.32 2 3 2 C2.42365861 6.75481646 0.44931479 9.97048212 -2 14 C-7.28 14 -12.56 14 -18 14 C-17.67 12.68 -17.34 11.36 -17 10 C-12.71 10 -8.42 10 -4 10 C-3.34 8.02 -2.68 6.04 -2 4 C-1.36184656 2.65278717 -0.70674629 1.31252882 0 0 Z " fill="#4F4F4F" transform="translate(32,71)"/>
<path d="M0 0 C3.125 1.5 3.125 1.5 5 3 C4.01 3.33 3.02 3.66 2 4 C1.67 4.66 1.34 5.32 1 6 C0.484375 5.649375 -0.03125 5.29875 -0.5625 4.9375 C-4.05826706 3.59297421 -6.41014435 4.08621856 -10 5 C-12.83619109 7.64711168 -13.47462592 10.21730663 -14 14 C-14.66 12.68 -15.32 11.36 -16 10 C-16.33 11.98 -16.66 13.96 -17 16 C-17.33 16 -17.66 16 -18 16 C-18.44933921 7.16299559 -18.44933921 7.16299559 -15 3 C-10.6212342 -0.84800631 -5.54207254 -0.70865846 0 0 Z " fill="#575757" transform="translate(374,50)"/>
<path d="M0 0 C0.99 0 1.98 0 3 0 C3 7.92 3 15.84 3 24 C1.68 23.67 0.36 23.34 -1 23 C-1.02887512 19.35418313 -1.04675585 15.70839537 -1.0625 12.0625 C-1.07087891 11.02158203 -1.07925781 9.98066406 -1.08789062 8.90820312 C-1.09272461 7.42416992 -1.09272461 7.42416992 -1.09765625 5.91015625 C-1.10289307 4.99371338 -1.10812988 4.07727051 -1.11352539 3.13305664 C-1 1 -1 1 0 0 Z " fill="#4B4B4B" transform="translate(390,50)"/>
<path d="M0 0 C0.99 0 1.98 0 3 0 C4.87186032 5.43696834 5.14613573 9.74148646 4.625 15.4375 C4.56828125 16.16904297 4.5115625 16.90058594 4.453125 17.65429688 C4.3132963 19.43711286 4.15824062 21.21872382 4 23 C2.68 23.33 1.36 23.66 0 24 C0 16.08 0 8.16 0 0 Z " fill="#333333" transform="translate(402,50)"/>
<path d="M0 0 C0.66 0 1.32 0 2 0 C2.33 2.64 2.66 5.28 3 8 C2.01 8 1.02 8 0 8 C-0.04898438 8.64066406 -0.09796875 9.28132813 -0.1484375 9.94140625 C-0.6040145 15.21196085 -1.3597379 19.96986288 -3 25 C-3.99 25 -4.98 25 -6 25 C-3.60385757 3.60385757 -3.60385757 3.60385757 0 0 Z " fill="#3B3B3B" transform="translate(90,77)"/>
<path d="M0 0 C4.32877262 1.53666406 6.46011208 4.86750758 9.0625 8.4375 C12.72620937 13.48080263 12.72620937 13.48080263 17 18 C16.01 18 15.02 18 14 18 C13.67 18.99 13.34 19.98 13 21 C10.84303921 18.42577933 8.70147934 15.8391729 6.5625 13.25 C5.95083984 12.52039062 5.33917969 11.79078125 4.70898438 11.0390625 C4.12568359 10.33007812 3.54238281 9.62109375 2.94140625 8.890625 C2.13231812 7.91657715 2.13231812 7.91657715 1.30688477 6.92285156 C-0.06040531 4.91112419 -0.66519741 3.40129829 -1 1 C-0.67 0.67 -0.34 0.34 0 0 Z " fill="#3F3F3F" transform="translate(153,51)"/>
<path d="M0 0 C0.33 0 0.66 0 1 0 C1 4.29 1 8.58 1 13 C1.66 13 2.32 13 3 13 C3 8.71 3 4.42 3 0 C3.33 0 3.66 0 4 0 C4.33 4.95 4.66 9.9 5 15 C9.80388386 16.13074409 9.80388386 16.13074409 14 16 C13.67 17.32 13.34 18.64 13 20 C8.60241521 21.02269414 6.02870334 21.1262601 2 19 C0 17 0 17 -0.1953125 13.0859375 C-0.18200376 11.51550649 -0.15813602 9.94513779 -0.125 8.375 C-0.11597656 7.57320312 -0.10695313 6.77140625 -0.09765625 5.9453125 C-0.07406223 3.96341477 -0.03819065 1.98167019 0 0 Z " fill="#585858" transform="translate(434,54)"/>
<path d="M0 0 C0.66 0.99 1.32 1.98 2 3 C3.64155367 4.77834981 4.82635771 5.91317885 7 7 C10.83936768 7.1421988 14.32016639 7.17754676 18 6 C18.33 7.32 18.66 8.64 19 10 C12.81933276 12.02276382 8.14875245 12.41601275 2 10 C-0.5625 7.875 -0.5625 7.875 -2 6 C-1.34 5.34 -0.68 4.68 0 4 C0 2.68 0 1.36 0 0 Z " fill="#393939" transform="translate(183,63)"/>
<path d="M0 0 C2.25 0 2.25 0 5 1 C6.95006801 3.4685151 8.17651631 5.96582185 9 9 C8.25 12.5 8.25 12.5 7 15 C5.05731159 12.08596738 3.53604696 9.14191424 2 6 C1.34 7.65 0.68 9.3 0 11 C-0.99 10.67 -1.98 10.34 -3 10 C-2.49287967 6.28111761 -1.88391785 3.26545761 0 0 Z " fill="#4C4C4C" transform="translate(272,43)"/>
<path d="M0 0 C1.99097846 2.98646769 2.94124926 5.59687262 4 9 C4.66 8.67 5.32 8.34 6 8 C6 8.66 6 9.32 6 10 C6.66 10 7.32 10 8 10 C7.5020163 13.73487777 7.12508244 15.81237635 5 19 C2 18 2 18 1.0859375 16.2578125 C0.85132812 15.55398437 0.61671875 14.85015625 0.375 14.125 C0.13523437 13.42632812 -0.10453125 12.72765625 -0.3515625 12.0078125 C-0.56554687 11.34523438 -0.77953125 10.68265625 -1 10 C-1.33 9.01 -1.66 8.02 -2 7 C-1.01 7 -0.02 7 1 7 C0.67 4.69 0.34 2.38 0 0 Z " fill="#656565" transform="translate(92,78)"/>
<path d="M0 0 C1.98 0 3.96 0 6 0 C6 1.32 6 2.64 6 4 C6.66 4 7.32 4 8 4 C9.5078125 5.8984375 9.5078125 5.8984375 11.125 8.375 C11.66382813 9.18710938 12.20265625 9.99921875 12.7578125 10.8359375 C14 13 14 13 14 15 C11.8125 14.9375 11.8125 14.9375 9 14 C6.61372642 11.43314355 4 8.61081552 4 5 C2.68 5 1.36 5 0 5 C0 3.35 0 1.7 0 0 Z " fill="#333333" transform="translate(217,59)"/>
<path d="M0 0 C1.41623216 -0.05447047 2.83308191 -0.09300508 4.25 -0.125 C5.03890625 -0.14820313 5.8278125 -0.17140625 6.640625 -0.1953125 C9.27648974 0.02288822 10.78448383 0.57032931 13 2 C15.67927341 6.01891012 15.15601248 8.24161923 15 13 C12.69 13 10.38 13 8 13 C8 12.67 8 12.34 8 12 C9.98 12 11.96 12 14 12 C14 10.02 14 8.04 14 6 C13.34 6 12.68 6 12 6 C12 7.65 12 9.3 12 11 C6.39 11 0.78 11 -5 11 C-4.67 10.01 -4.34 9.02 -4 8 C-4 8.66 -4 9.32 -4 10 C0.95 10 5.9 10 11 10 C10.34 8.35 9.68 6.7 9 5 C6.36 4.67 3.72 4.34 1 4 C1 3.67 1 3.34 1 3 C2.98 2.67 4.96 2.34 7 2 C4.69 1.67 2.38 1.34 0 1 C0 0.67 0 0.34 0 0 Z " fill="#606060" transform="translate(188,50)"/>
<path d="M0 0 C0.33 0 0.66 0 1 0 C1.33 8.58 1.66 17.16 2 26 C2.66 22.7 3.32 19.4 4 16 C6.31 16.99 8.62 17.98 11 19 C10.34 19.33 9.68 19.66 9 20 C8.01 19.67 7.02 19.34 6 19 C6 19.66 6 20.32 6 21 C5.34 21 4.68 21 4 21 C4 24.63 4 28.26 4 32 C2.68 32 1.36 32 0 32 C0 21.44 0 10.88 0 0 Z " fill="#797979" transform="translate(296,52)"/>
<path d="M0 0 C0.66 0 1.32 0 2 0 C4.8380047 5.6760094 4.68457602 15.71845173 3.39453125 21.90234375 C2.5625 24.0625 2.5625 24.0625 1 27 C0.67 27 0.34 27 0 27 C0 18.09 0 9.18 0 0 Z " fill="#101010" transform="translate(297,52)"/>
<path d="M0 0 C0.33 0 0.66 0 1 0 C1.226875 0.886875 1.45375 1.77375 1.6875 2.6875 C3.24307704 6.61348014 4.63806671 8.44200728 8 11 C10.73343024 11.68969668 13.15986725 11.85558647 16 12 C16 12.66 16 13.32 16 14 C5.25334762 14.77129084 5.25334762 14.77129084 0.75 12 C-1.61535887 7.94509907 -1.46406201 5.64062008 -1 1 C-0.67 0.67 -0.34 0.34 0 0 Z " fill="#1B1B1B" transform="translate(358,59)"/>
<path d="M0 0 C0.33 0 0.66 0 1 0 C1.33 4.95 1.66 9.9 2 15 C6.80388386 16.13074409 6.80388386 16.13074409 11 16 C10.67 17.32 10.34 18.64 10 20 C6.77075002 20.75098837 4.44615296 21.0991451 1.1875 20.375 C-1 19 -1 19 -1.8125 16.375 C-1.874375 15.59125 -1.93625 14.8075 -2 14 C-1.34 14 -0.68 14 0 14 C0 9.38 0 4.76 0 0 Z " fill="#616161" transform="translate(243,54)"/>
<path d="M0 0 C0.93423645 3.01031744 1.04449911 3.86650268 0 7 C0.66 7 1.32 7 2 7 C1.31195504 13.19240462 -0.28048715 19.01955594 -2 25 C-3.88002168 18.28563684 -4.17387847 13.28052239 -2.0625 6.5625 C-1.68222656 5.32628906 -1.30195312 4.09007813 -0.91015625 2.81640625 C-0.60980469 1.88699219 -0.30945313 0.95757812 0 0 Z " fill="#4A4A4A" transform="translate(84,95)"/>
<path d="M0 0 C0.33 0 0.66 0 1 0 C1.33 7.92 1.66 15.84 2 24 C2.66 20.04 3.32 16.08 4 12 C6.475 12.99 6.475 12.99 9 14 C7.68 14.33 6.36 14.66 5 15 C4.67 19.29 4.34 23.58 4 28 C2.68 28 1.36 28 0 28 C0 18.76 0 9.52 0 0 Z " fill="#5E5E5E" transform="translate(327,56)"/>
<path d="M0 0 C0.66 0 1.32 0 2 0 C2.2361959 6.40353322 1.823321 11.84629161 0 18 C-1.32 17.34 -2.64 16.68 -4 16 C-4 14.02 -4 12.04 -4 10 C-3.01 10 -2.02 10 -1 10 C-0.67 6.7 -0.34 3.4 0 0 Z " fill="#2D2D2D" transform="translate(51,80)"/>
<path d="M0 0 C0.66 0 1.32 0 2 0 C2.74440282 9.12752383 3.25610227 17.87876505 2 27 C0 25 0 25 -0.22705078 22.47802734 C-0.21657715 21.4411377 -0.20610352 20.40424805 -0.1953125 19.3359375 C-0.18886719 18.21445313 -0.18242187 17.09296875 -0.17578125 15.9375 C-0.15902344 14.761875 -0.14226562 13.58625 -0.125 12.375 C-0.11597656 11.19164063 -0.10695313 10.00828125 -0.09765625 8.7890625 C-0.07402812 5.85917477 -0.04108514 2.9296866 0 0 Z " fill="#050505" transform="translate(328,55)"/>
<path d="M0 0 C1.32 0.33 2.64 0.66 4 1 C1.33333333 5 -1.33333333 9 -4 13 C-4.33 12.01 -4.66 11.02 -5 10 C-6.32 10 -7.64 10 -9 10 C-8.67 9.34 -8.34 8.68 -8 8 C-7.34 8.33 -6.68 8.66 -6 9 C-5.7525 8.443125 -5.505 7.88625 -5.25 7.3125 C-3.78393985 4.60028873 -1.97010529 2.36412635 0 0 Z " fill="#545454" transform="translate(227,50)"/>
<path d="M0 0 C3.49258493 3.49258493 4.92091065 7.5500285 5.1875 12.4375 C5.125625 13.283125 5.06375 14.12875 5 15 C2 14 2 14 0.61328125 11.27734375 C0.18402344 10.17519531 -0.24523437 9.07304688 -0.6875 7.9375 C-1.12449219 6.83277344 -1.56148438 5.72804688 -2.01171875 4.58984375 C-2.33785156 3.73519531 -2.66398437 2.88054687 -3 2 C-2.34 2 -1.68 2 -1 2 C-0.67 1.34 -0.34 0.68 0 0 Z " fill="#464646" transform="translate(110,69)"/>
<path d="M0 0 C2.475 0.99 2.475 0.99 5 2 C5.83796731 6.65537393 6.0161692 10.37078475 5 15 C4.34 15 3.68 15 3 15 C2 10 1 5 0 0 Z " fill="#282828" transform="translate(313,52)"/>
<path d="M0 0 C0.99 0 1.98 0 3 0 C3.33 0.99 3.66 1.98 4 3 C-0.24429722 7.03725833 -2.89822307 8.88700413 -9 9 C-10.32 8.34 -11.64 7.68 -13 7 C-9.7 7 -6.4 7 -3 7 C-3 6.34 -3 5.68 -3 5 C-3.66 4.67 -4.32 4.34 -5 4 C-4.360625 3.71125 -3.72125 3.4225 -3.0625 3.125 C-0.84793921 2.17176549 -0.84793921 2.17176549 0 0 Z " fill="#595959" transform="translate(377,66)"/>
<path d="M0 0 C2.4375 0.375 2.4375 0.375 5 1 C6.32229189 3.64458379 6.09677194 5.67761301 6.0625 8.625 C6.05347656 9.62789062 6.04445313 10.63078125 6.03515625 11.6640625 C6.02355469 12.43492188 6.01195312 13.20578125 6 14 C5.34 14 4.68 14 4 14 C3.896875 12.948125 3.79375 11.89625 3.6875 10.8125 C3.01750713 7.09708498 2.03743581 5.10044579 0 2 C0 1.34 0 0.68 0 0 Z " fill="#1C1C1C" transform="translate(343,52)"/>
<path d="M0 0 C1.75 0.125 1.75 0.125 4 1 C6.25 4.0625 6.25 4.0625 8 7 C7.34 8.32 6.68 9.64 6 11 C3.69 8.03 1.38 5.06 -1 2 C-0.67 1.34 -0.34 0.68 0 0 Z " fill="#464646" transform="translate(210,50)"/>
<path d="M0 0 C0.33 0 0.66 0 1 0 C1.125 7.75 1.125 7.75 0 10 C-0.99 10 -1.98 10 -3 10 C-3.33 10.99 -3.66 11.98 -4 13 C-4.41713515 11.56853622 -4.8080497 10.12941114 -5.1875 8.6875 C-5.40792969 7.88699219 -5.62835938 7.08648437 -5.85546875 6.26171875 C-6 4 -6 4 -4.55078125 2.20703125 C-4.03902344 1.80871094 -3.52726562 1.41039063 -3 1 C-2.34 2.65 -1.68 4.3 -1 6 C-0.67 4.02 -0.34 2.04 0 0 Z " fill="#565656" transform="translate(50,80)"/>
<path d="M0 0 C1.54363098 4.11634927 0.73840234 7.77096844 0 12 C-0.99 13.485 -0.99 13.485 -2 15 C-2.66 15 -3.32 15 -4 15 C-3.71935082 12.68613705 -3.42518311 10.37390992 -3.125 8.0625 C-2.96257812 6.77472656 -2.80015625 5.48695312 -2.6328125 4.16015625 C-2.42398438 3.11730469 -2.21515625 2.07445313 -2 1 C-1.34 0.67 -0.68 0.34 0 0 Z " fill="#272727" transform="translate(81,112)"/>
<path d="M0 0 C1.32 0.66 2.64 1.32 4 2 C4 3.98 4 5.96 4 8 C3.01 7.67 2.02 7.34 1 7 C0.67 7.66 0.34 8.32 0 9 C-0.66 8.34 -1.32 7.68 -2 7 C-1.34 4.69 -0.68 2.38 0 0 Z " fill="#2D2D2D" transform="translate(106,64)"/>
<path d="M0 0 C1.3950848 2.29778673 2.07438619 3.4792967 1.6875 6.1875 C1 8 1 8 0 9 C-1.68608966 9.07205511 -3.37500659 9.08386068 -5.0625 9.0625 C-5.98160156 9.05347656 -6.90070313 9.04445313 -7.84765625 9.03515625 C-8.55792969 9.02355469 -9.26820313 9.01195312 -10 9 C-10.33 8.34 -10.66 7.68 -11 7 C-7.37 7 -3.74 7 0 7 C-0.185625 6.030625 -0.37125 5.06125 -0.5625 4.0625 C-0.706875 3.051875 -0.85125 2.04125 -1 1 C-0.67 0.67 -0.34 0.34 0 0 Z " fill="#0A0A0A" transform="translate(280,54)"/>
<path d="M0 0 C-0.33 1.32 -0.66 2.64 -1 4 C-6.41538462 5.23076923 -6.41538462 5.23076923 -9.375 4.0625 C-9.91125 3.711875 -10.4475 3.36125 -11 3 C-4.5 0 -4.5 0 0 0 Z " fill="#4B4B4B" transform="translate(448,70)"/>
<path d="M0 0 C3.3 0 6.6 0 10 0 C10.33 0.99 10.66 1.98 11 3 C3.57142857 4.28571429 3.57142857 4.28571429 0 3 C0 2.01 0 1.02 0 0 Z " fill="#424242" transform="translate(302,71)"/>
<path d="M0 0 C0.99 0 1.98 0 3 0 C3.25 5.625 3.25 5.625 1 9 C0.01 9 -0.98 9 -2 9 C-1.51421457 5.87709365 -1.0013988 3.00419641 0 0 Z " fill="#444444" transform="translate(262,65)"/>
<path d="M0 0 C2.77068246 2.77068246 3.27671917 5.18633742 4 9 C2.625 11.4375 2.625 11.4375 1 13 C0.01 10.03 -0.98 7.06 -2 4 C-1.34 4 -0.68 4 0 4 C0 2.68 0 1.36 0 0 Z " fill="#545454" transform="translate(277,45)"/>
<path d="M0 0 C0.66 0.33 1.32 0.66 2 1 C3.1577506 4.47325181 3.06866652 7.36067448 3 11 C2.01 10.67 1.02 10.34 0 10 C-0.19412181 8.52168779 -0.38012131 7.04230684 -0.5625 5.5625 C-0.66691406 4.73878906 -0.77132812 3.91507812 -0.87890625 3.06640625 C-0.91886719 2.38449219 -0.95882812 1.70257813 -1 1 C-0.67 0.67 -0.34 0.34 0 0 Z " fill="#343434" transform="translate(43,74)"/>
<path d="M0 0 C2.5 1.125 2.5 1.125 5 3 C5.3125 6.1875 5.3125 6.1875 5 9 C3.68 9 2.36 9 1 9 C1.020625 8.2575 1.04125 7.515 1.0625 6.75 C1.00671312 4.29537721 0.6930096 2.33890739 0 0 Z " fill="#222222" transform="translate(93,87)"/>
<path d="M0 0 C0.33 1.32 0.66 2.64 1 4 C1.226875 4.61875 1.45375 5.2375 1.6875 5.875 C2.13680826 8.93029617 1.09540355 11.16483788 0 14 C-0.33 12.68 -0.66 11.36 -1 10 C-1.66 10 -2.32 10 -3 10 C-2.01 6.7 -1.02 3.4 0 0 Z " fill="#545454" transform="translate(104,67)"/>
<path d="M0 0 C0.33 0.66 0.66 1.32 1 2 C6.28 2 11.56 2 17 2 C17 2.33 17 2.66 17 3 C12.38 3 7.76 3 3 3 C2.67 4.65 2.34 6.3 2 8 C1.67 6.68 1.34 5.36 1 4 C0.34 4 -0.32 4 -1 4 C-0.67 2.68 -0.34 1.36 0 0 Z " fill="#6A6A6A" transform="translate(264,61)"/>
<path d="M0 0 C10.55808656 -0.55353075 10.55808656 -0.55353075 15 3 C14.01 3.33 13.02 3.66 12 4 C11.67 4.66 11.34 5.32 11 6 C9.68 5.01 8.36 4.02 7 3 C7.33 2.34 7.66 1.68 8 1 C5.36 1 2.72 1 0 1 C0 0.67 0 0.34 0 0 Z " fill="#656565" transform="translate(364,50)"/>
<path d="M0 0 C0.66 0.33 1.32 0.66 2 1 C2 1.99 2 2.98 2 4 C-3.57432514 5.66251802 -7.3067505 6.18609365 -13 5 C-13 4.67 -13 4.34 -13 4 C-9.04 4 -5.08 4 -1 4 C-1 3.34 -1 2.68 -1 2 C-1.66 1.67 -2.32 1.34 -3 1 C-2.01 0.67 -1.02 0.34 0 0 Z " fill="#747474" transform="translate(200,69)"/>
<path d="M0 0 C0.33 0 0.66 0 1 0 C1.05395478 1.62463842 1.09277195 3.24978541 1.125 4.875 C1.14820313 5.77992187 1.17140625 6.68484375 1.1953125 7.6171875 C1 10 1 10 -1 12 C-2.32 11.67 -3.64 11.34 -5 11 C-4.34 8.03 -3.68 5.06 -3 2 C-2.67 2 -2.34 2 -2 2 C-2 4.31 -2 6.62 -2 9 C-1.34 9 -0.68 9 0 9 C0 6.03 0 3.06 0 0 Z " fill="#5F5F5F" transform="translate(349,57)"/>
<path d="M0 0 C2.29141286 -0.05384521 4.58318188 -0.09272087 6.875 -0.125 C8.78925781 -0.15980469 8.78925781 -0.15980469 10.7421875 -0.1953125 C14 0 14 0 16 2 C15.34 2 14.68 2 14 2 C14.33 2.99 14.66 3.98 15 5 C12.03 4.505 12.03 4.505 9 4 C9.66 3.34 10.32 2.68 11 2 C7.37 1.67 3.74 1.34 0 1 C0 0.67 0 0.34 0 0 Z " fill="#707070" transform="translate(329,50)"/>
<path d="M0 0 C0.33 0 0.66 0 1 0 C1.14285714 7.42857143 1.14285714 7.42857143 0 11 C-0.99 11 -1.98 11 -3 11 C-2.69217504 9.35328588 -2.37860766 7.70764424 -2.0625 6.0625 C-1.88847656 5.14597656 -1.71445313 4.22945313 -1.53515625 3.28515625 C-1 1 -1 1 0 0 Z " fill="#222222" transform="translate(87,91)"/>
<path d="M0 0 C0.33 0 0.66 0 1 0 C1 4.29 1 8.58 1 13 C0.67 11.68 0.34 10.36 0 9 C-0.66 9 -1.32 9 -2 9 C-2 6.69 -2 4.38 -2 2 C-1.34 2 -0.68 2 0 2 C0 1.34 0 0.68 0 0 Z " fill="#404040" transform="translate(53,71)"/>
<path d="M0 0 C0.33 0 0.66 0 1 0 C1.33 1.65 1.66 3.3 2 5 C2.33 5 2.66 5 3 5 C2.67 8.63 2.34 12.26 2 16 C1.67 16 1.34 16 1 16 C0.7834375 14.63875 0.7834375 14.63875 0.5625 13.25 C0.10440943 10.18058227 0.10440943 10.18058227 -0.625 8 C-1.15211371 5.18872687 -0.56791744 2.77648527 0 0 Z " fill="#666666" transform="translate(53,63)"/>
<path d="M0 0 C0.33 0 0.66 0 1 0 C1 3.3 1 6.6 1 10 C0.01 10.33 -0.98 10.66 -2 11 C-2.25 3.375 -2.25 3.375 0 0 Z " fill="#272727" transform="translate(56,58)"/>
<path d="M0 0 C0.99 0.33 1.98 0.66 3 1 C2.67 2.65 2.34 4.3 2 6 C0.68 6 -0.64 6 -2 6 C-2.33 4.68 -2.66 3.36 -3 2 C-2.01 1.34 -1.02 0.68 0 0 Z " fill="#4E4E4E" transform="translate(391,40)"/>
<path d="M0 0 C0.93423645 3.01031744 1.04449911 3.86650268 0 7 C0.66 7 1.32 7 2 7 C1.67 9.31 1.34 11.62 1 14 C-0.5625 13 -0.5625 13 -2 11 C-2.02404235 7.15322329 -1.21103438 3.63310314 0 0 Z " fill="#656565" transform="translate(84,95)"/>
<path d="M0 0 C0.99 0 1.98 0 3 0 C3 1.65 3 3.3 3 5 C2.01 5 1.02 5 0 5 C-0.66 6.32 -1.32 7.64 -2 9 C-2.99 8.67 -3.98 8.34 -5 8 C-3.98379995 4.95139986 -3.22608429 4.13333078 -1 2 C-0.67 1.34 -0.34 0.68 0 0 Z " fill="#777777" transform="translate(435,45)"/>
<path d="M0 0 C0.33 0 0.66 0 1 0 C2.31626692 3.61973402 3 6.09567131 3 10 C2.34 10 1.68 10 1 10 C1 9.34 1 8.68 1 8 C0.34 8 -0.32 8 -1 8 C-1.04241723 5.66705225 -1.04092937 3.33297433 -1 1 C-0.67 0.67 -0.34 0.34 0 0 Z " fill="#131313" transform="translate(358,59)"/>
<path d="M0 0 C7.14893617 -0.56737589 7.14893617 -0.56737589 11 2 C4.565 2.495 4.565 2.495 -2 3 C-1.34 2.01 -0.68 1.02 0 0 Z " fill="#0C0C0C" transform="translate(187,51)"/>
<path d="M0 0 C0.33 0 0.66 0 1 0 C1.21192221 5.19209404 0.5912689 9.126739 -1 14 C-1.94602608 10.9148254 -2.01578237 8.50740993 -1.625 5.3125 C-1.53476563 4.52488281 -1.44453125 3.73726562 -1.3515625 2.92578125 C-1 1 -1 1 0 0 Z " fill="#444444" transform="translate(77,128)"/>
<path d="M0 0 C1.9453125 -0.29296875 1.9453125 -0.29296875 4.125 -0.1875 C5.40375 -0.125625 6.6825 -0.06375 8 0 C8 0.66 8 1.32 8 2 C4.7 2.33 1.4 2.66 -2 3 C-1.34 2.01 -0.68 1.02 0 0 Z " fill="#272727" transform="translate(364,51)"/>
<path d="M0 0 C2.475 0.495 2.475 0.495 5 1 C5 2.65 5 4.3 5 6 C4.34 6 3.68 6 3 6 C3 5.34 3 4.68 3 4 C2.01 4 1.02 4 0 4 C0 2.68 0 1.36 0 0 Z " fill="#2E2E2E" transform="translate(272,43)"/>
<path d="M0 0 C0.99 0.33 1.98 0.66 3 1 C2.01 3.97 1.02 6.94 0 10 C-0.33 10 -0.66 10 -1 10 C-1.02689216 8.52093108 -1.04634621 7.04172517 -1.0625 5.5625 C-1.07410156 4.73878906 -1.08570313 3.91507812 -1.09765625 3.06640625 C-1 1 -1 1 0 0 Z " fill="#010101" transform="translate(298,69)"/>
<path d="M0 0 C2.18975773 3.28463659 2.99806563 6.20696275 4 10 C2.35 9.67 0.7 9.34 -1 9 C-0.835 8.2575 -0.67 7.515 -0.5 6.75 C0.11925696 3.80993422 0.11925696 3.80993422 0 0 Z " fill="#3B3B3B" transform="translate(281,54)"/>
<path d="M0 0 C0.33 0 0.66 0 1 0 C1 2.97 1 5.94 1 9 C0.34 8.34 -0.32 7.68 -1 7 C-1.66 7.66 -2.32 8.32 -3 9 C-2.5020163 5.26512223 -2.12508244 3.18762365 0 0 Z " fill="#454545" transform="translate(57,52)"/>
<path d="M0 0 C0.80824219 0.19464844 1.61648438 0.38929687 2.44921875 0.58984375 C3.06410156 0.74582031 3.67898438 0.90179688 4.3125 1.0625 C4.3125 1.3925 4.3125 1.7225 4.3125 2.0625 C1.0125 2.7225 -2.2875 3.3825 -5.6875 4.0625 C-6.3475 2.7425 -7.0075 1.4225 -7.6875 0.0625 C-4.39053895 -1.03648702 -3.28255097 -0.80874444 0 0 Z " fill="#808080" transform="translate(412.6875,51.9375)"/>
<path d="M0 0 C0.66 0 1.32 0 2 0 C2 0.66 2 1.32 2 2 C2.66 2 3.32 2 4 2 C4.33 1.34 4.66 0.68 5 0 C6.32 1.32 7.64 2.64 9 4 C7.02 4.33 5.04 4.66 3 5 C2.01 3.35 1.02 1.7 0 0 Z " fill="#676767" transform="translate(357,67)"/>
<path d="M0 0 C0.66 0.33 1.32 0.66 2 1 C1.43628586 4.26954202 0.50037734 5.82575883 -2 8 C-2 7.01 -2 6.02 -2 5 C-2.66 4.67 -3.32 4.34 -4 4 C-2.68 2.68 -1.36 1.36 0 0 Z " fill="#4D4D4D" transform="translate(362,51)"/>
<path d="M0 0 C0.99 0 1.98 0 3 0 C3.66 1.98 4.32 3.96 5 6 C4.01 5.67 3.02 5.34 2 5 C1.67 5.66 1.34 6.32 1 7 C0.67 4.69 0.34 2.38 0 0 Z " fill="#545454" transform="translate(113,81)"/>
<path d="M0 0 C1.65 0 3.3 0 5 0 C5.33 1.32 5.66 2.64 6 4 C5.01 3.67 4.02 3.34 3 3 C2.67 3.99 2.34 4.98 2 6 C1.34 4.02 0.68 2.04 0 0 Z " fill="#5A5A5A" transform="translate(281,64)"/>
<path d="M0 0 C0.33 0.99 0.66 1.98 1 3 C1.66 3.33 2.32 3.66 3 4 C2.01 4.99 1.02 5.98 0 7 C-0.99 6.34 -1.98 5.68 -3 5 C-2.01 3.35 -1.02 1.7 0 0 Z " fill="#575757" transform="translate(216,61)"/>
<path d="M0 0 C0.66 0.33 1.32 0.66 2 1 C2 3.64 2 6.28 2 9 C1.01 8.67 0.02 8.34 -1 8 C-0.67 5.36 -0.34 2.72 0 0 Z " fill="#0E0E0E" transform="translate(379,59)"/>
<path d="M0 0 C1.65 0 3.3 0 5 0 C5.33 0.66 5.66 1.32 6 2 C5.01 2.495 5.01 2.495 4 3 C3.67 3.66 3.34 4.32 3 5 C0.525 4.01 0.525 4.01 -2 3 C-1.34 2.67 -0.68 2.34 0 2 C0 1.34 0 0.68 0 0 Z " fill="#636363" transform="translate(310,51)"/>
<path d="M0 0 C2.35448165 2.55068845 2.98327924 3.71017358 3.1875 7.25 C3.125625 8.1575 3.06375 9.065 3 10 C2.34 9.01 1.68 8.02 1 7 C0.34 7.66 -0.32 8.32 -1 9 C-0.67 6.03 -0.34 3.06 0 0 Z " fill="#797979" transform="translate(56,46)"/>
<path d="M0 0 C0 1.65 0 3.3 0 5 C-1.32 5 -2.64 5 -4 5 C-4 3.68 -4 2.36 -4 1 C-1 0 -1 0 0 0 Z " fill="#090909" transform="translate(171,68)"/>
<path d="M0 0 C0.66 0.33 1.32 0.66 2 1 C1.67 2.32 1.34 3.64 1 5 C-0.65 5.33 -2.3 5.66 -4 6 C-2.84826645 3.53199953 -1.95216435 1.95216435 0 0 Z " fill="#5C5C5C" transform="translate(185,51)"/>
<path d="M0 0 C0.99 0 1.98 0 3 0 C3 1.65 3 3.3 3 5 C1.68 5 0.36 5 -1 5 C-1 2 -1 2 0 0 Z " fill="#858585" transform="translate(241,45)"/>
</svg>
